<?xml version="1.0" standalone="no"?>
<!DOCTYPE svg PUBLIC "-//W3C//DTD SVG 1.1//EN" "http://www.w3.org/Graphics/SVG/1.1/DTD/svg11.dtd">
<svg xmlns:dc="http://purl.org/dc/elements/1.1/" xmlns:cc="http://creativecommons.org/ns#" xmlns:rdf="http://www.w3.org/1999/02/22-rdf-syntax-ns#" xmlns:svg="http://www.w3.org/2000/svg" xmlns="http://www.w3.org/2000/svg" xmlns:sodipodi="http://sodipodi.sourceforge.net/DTD/sodipodi-0.dtd" xmlns:inkscape="http://www.inkscape.org/namespaces/inkscape" version="1.1" id="svg2" xml:space="preserve" width="501.3333435058594" height="178.6666717529297" viewBox="0 0 501.33334 178.66667" sodipodi:docname="pix-banco-central-seeklogo.com.eps"><metadata id="metadata8"><rdf:RDF><cc:Work rdf:about=""><dc:format>image/svg+xml</dc:format><dc:type rdf:resource="http://purl.org/dc/dcmitype/StillImage"/></cc:Work></rdf:RDF></metadata><defs id="defs6"/><sodipodi:namedview pagecolor="#ffffff" bordercolor="#666666" borderopacity="1" objecttolerance="10" gridtolerance="10" guidetolerance="10" inkscape:pageopacity="0" inkscape:pageshadow="2" inkscape:window-width="640" inkscape:window-height="480" id="namedview4"/><g id="g10" inkscape:groupmode="layer" inkscape:label="ink_ext_XXXXXX" transform="matrix(1.3333333,0,0,-1.3333333,0,178.66667)"><g id="g12" transform="scale(0.1)"><path d="M 1547.87,92.3359 V 855.199 c 0,140.36 113.79,254.141 254.15,254.141 l 225.23,-0.33 c 139.96,-0.28 253.27,-113.819 253.27,-253.78 V 692.852 c 0,-140.36 -113.78,-254.153 -254.14,-254.153 H 1708.1" style="fill:none;stroke:#939598;stroke-width:46.9843;stroke-linecap:round;stroke-linejoin:round;stroke-miterlimit:22.9256;stroke-dasharray:none;stroke-opacity:1" id="path14"/><path d="m 2343.47,1109.45 h 97.71 c 57.61,0 104.3,-46.7 104.3,-104.3 V 435.285" style="fill:none;stroke:#939598;stroke-width:46.9843;stroke-linecap:round;stroke-linejoin:round;stroke-miterlimit:22.9256;stroke-dasharray:none;stroke-opacity:1" id="path16"/><path d="m 2524.53,1197.74 -44.31,44.31 c -11,10.99 -11,28.82 0,39.81 l 44.28,44.28 c 11.01,11.01 28.86,11.01 39.86,0 l 44.29,-44.28 c 11,-10.99 11,-28.82 0,-39.81 l -44.31,-44.31 c -10.99,-11 -28.82,-11 -39.81,0" style="fill:#32bcad;fill-opacity:1;fill-rule:nonzero;stroke:none" id="path18"/><path d="m 2732.92,1109.96 h 96.9 c 49.84,0 97.65,-19.8 132.89,-55.05 l 226.64,-226.629 c 29.35,-29.367 76.95,-29.367 106.31,0 l 225.81,225.809 c 35.24,35.24 83.05,55.04 132.89,55.04 l 78.78,-0.01" style="fill:none;stroke:#939598;stroke-width:46.9843;stroke-linecap:round;stroke-linejoin:round;stroke-miterlimit:22.9256;stroke-dasharray:none;stroke-opacity:1" id="path20"/><path d="m 2732.92,440.273 h 96.9 c 49.84,0 97.65,19.797 132.89,55.047 l 226.64,226.637 c 29.35,29.359 76.95,29.359 106.31,0 l 225.81,-225.805 c 35.24,-35.25 83.05,-55.047 132.89,-55.047 h 78.78" style="fill:none;stroke:#939598;stroke-width:46.9843;stroke-linecap:round;stroke-linejoin:round;stroke-miterlimit:22.9256;stroke-dasharray:none;stroke-opacity:1" id="path22"/><path d="m 970.191,295.488 c -48.636,0 -94.371,18.934 -128.753,53.309 l -185.915,185.91 c -13.05,13.086 -35.804,13.047 -48.851,0 L 420.078,348.113 c -34.39,-34.367 -80.125,-53.3 -128.758,-53.3 H 254.688 L 490.145,59.3438 c 73.539,-73.5313 192.769,-73.5313 266.304,0 L 992.59,295.488 h -22.399" style="fill:#32bcad;fill-opacity:1;fill-rule:nonzero;stroke:none" id="path24"/><path d="m 291.32,953.094 c 48.633,0 94.368,-18.942 128.754,-53.313 L 606.668,713.16 c 13.437,-13.441 35.379,-13.496 48.855,0.016 l 185.911,185.929 c 34.386,34.375 80.125,53.309 128.757,53.309 h 22.391 L 756.449,1188.55 c -73.539,73.54 -192.765,73.54 -266.304,0 L 254.691,953.094 h 36.629" style="fill:#32bcad;fill-opacity:1;fill-rule:nonzero;stroke:none" id="path26"/><path d="m 1187.9,757.098 -142.7,142.699 c -3.14,-1.258 -6.54,-2.047 -10.13,-2.047 h -64.879 c -33.543,0 -66.378,-13.598 -90.078,-37.316 L 694.199,674.516 c -17.39,-17.395 -40.25,-26.106 -63.094,-26.106 -22.855,0 -45.699,8.711 -63.093,26.09 L 381.398,861.109 c -23.703,23.719 -56.531,37.321 -90.078,37.321 h -79.773 c -3.399,0 -6.582,0.804 -9.586,1.933 L 58.6953,757.098 c -73.5391,-73.532 -73.5391,-192.762 0,-266.301 L 201.953,347.539 c 3,1.129 6.192,1.934 9.59,1.934 h 79.777 c 33.547,0 66.375,13.597 90.078,37.316 l 186.594,186.594 c 33.727,33.699 92.516,33.715 126.207,-0.016 L 880.117,387.473 c 23.696,-23.723 56.531,-37.325 90.078,-37.325 h 64.875 c 3.59,0 6.99,-0.781 10.14,-2.039 l 142.69,142.688 c 73.54,73.539 73.54,192.769 0,266.301" style="fill:#32bcad;fill-opacity:1;fill-rule:nonzero;stroke:none" id="path28"/><path d="m 1741.56,157.176 c -10.52,0 -22.79,-2.531 -34.91,-5.324 v -46.497 c 8.4,-3.066 17.99,-4.535 27.19,-4.535 23.31,0 34.37,7.86 34.37,28.387 0,19.316 -9.07,27.969 -26.65,27.969 z m -42.77,-86.3322 v 91.9332 h 6.39 l 0.68,-4.004 c 10.78,2.536 25.71,5.864 36.36,5.864 8.67,0 16.92,-1.317 23.85,-6.918 8,-6.535 10.53,-17.055 10.53,-28.508 0,-12 -4,-23.328 -14.92,-29.5821 -7.6,-4.2617 -17.86,-5.9922 -27.05,-5.9922 -9.46,0 -18.52,1.4727 -27.98,4.2617 V 70.8438 h -7.86" style="fill:#939598;fill-opacity:1;fill-rule:nonzero;stroke:none" id="path30"/><path d="m 1835.13,157.457 c -23.32,0 -33.71,-7.336 -33.71,-27.852 0,-19.851 10.26,-28.785 33.71,-28.785 23.18,0 33.57,7.203 33.57,27.723 0,19.848 -10.25,28.914 -33.57,28.914 z m 29.97,-56.637 c -7.72,-5.5817 -18.12,-7.1833 -29.97,-7.1833 -12.12,0 -22.52,1.7383 -30.12,7.1873 -8.52,5.992 -11.99,15.864 -11.99,28.246 0,12.262 3.47,22.243 11.99,28.387 7.6,5.457 18,7.184 30.12,7.184 11.99,0 22.25,-1.727 29.97,-7.184 8.67,-6.144 11.99,-16.125 11.99,-28.246 0,-12.395 -3.46,-22.395 -11.99,-28.387 z m 0,0 v 0 0" style="fill:#939598;fill-opacity:1;fill-rule:nonzero;stroke:none" id="path32"/><path d="m 1975.46,95.4961 -25.98,55.8129 h -0.53 l -25.59,-55.8129 h -7.05 l -27.71,67.2809 h 8.65 l 23.05,-56.48 h 0.54 l 25.04,56.48 h 7.2 l 25.71,-56.48 h 0.54 l 22.52,56.48 h 8.38 l -27.71,-67.2809 h -7.06" style="fill:#939598;fill-opacity:1;fill-rule:nonzero;stroke:none" id="path34"/><path d="m 2060.49,157.586 c -21.58,0 -28.91,-9.59 -30.25,-23.453 h 60.49 c -0.66,15.316 -8.53,23.453 -30.24,23.453 z m -0.26,-63.9571 c -12.93,0 -21.32,1.8672 -27.99,7.4761 -7.86,6.793 -10.52,16.641 -10.52,27.961 0,10.797 3.6,22.247 12.53,28.782 7.46,5.195 16.65,6.793 26.24,6.793 8.66,0 18.65,-0.926 26.91,-6.532 9.73,-6.515 11.6,-17.984 11.6,-31.031 h -69.02 c 0.27,-13.859 4.8,-26.125 30.91,-26.125 12.39,0 23.98,2.012 34.78,3.871 v -7.0623 c -11.21,-2.0039 -23.59,-4.1328 -35.44,-4.1328" style="fill:#939598;fill-opacity:1;fill-rule:nonzero;stroke:none" id="path36"/><path d="m 2121.55,95.4961 v 67.2809 h 6.4 l 0.67,-4.004 c 14.25,3.602 20.92,5.864 33.43,5.864 h 0.95 v -7.461 h -1.87 c -10.53,0 -16.92,-1.453 -31.71,-5.324 V 95.4961 h -7.87" style="fill:#939598;fill-opacity:1;fill-rule:nonzero;stroke:none" id="path38"/><path d="m 2208.65,157.586 c -21.59,0 -28.92,-9.59 -30.25,-23.453 h 60.49 c -0.66,15.316 -8.53,23.453 -30.24,23.453 z m -0.27,-63.9571 c -12.93,0 -21.32,1.8672 -27.98,7.4761 -7.86,6.793 -10.52,16.641 -10.52,27.961 0,10.797 3.59,22.247 12.53,28.782 7.45,5.195 16.64,6.793 26.24,6.793 8.66,0 18.65,-0.926 26.9,-6.532 9.73,-6.515 11.6,-17.984 11.6,-31.031 h -69.01 c 0.26,-13.859 4.8,-26.125 30.9,-26.125 12.39,0 23.98,2.012 34.78,3.871 v -7.0623 c -11.19,-2.0039 -23.59,-4.1328 -35.44,-4.1328" style="fill:#939598;fill-opacity:1;fill-rule:nonzero;stroke:none" id="path40"/><path d="m 2333.26,152.91 c -8.39,3.074 -17.98,4.543 -27.17,4.543 -23.32,0 -34.38,-7.871 -34.38,-28.387 0,-19.441 9.06,-27.964 26.65,-27.964 10.52,0 22.78,2.531 34.9,5.191 z m 1.47,-57.4178 -0.67,4.0078 c -10.79,-2.5352 -25.71,-5.8672 -36.36,-5.8672 -8.66,0 -16.93,1.1953 -23.86,6.9302 -7.99,6.539 -10.52,17.05 -10.52,28.503 0,11.989 4,23.325 14.92,29.454 7.6,4.39 17.85,6.117 27.18,6.117 9.33,0 18.38,-1.602 27.84,-4.258 v 30.777 h 7.87 V 95.4922 h -6.4" style="fill:#939598;fill-opacity:1;fill-rule:nonzero;stroke:none" id="path42"/><path d="m 2456.39,157.176 c -10.53,0 -22.79,-2.531 -34.91,-5.324 v -46.36 c 8.53,-3.203 17.98,-4.672 27.18,-4.672 23.31,0 34.37,7.86 34.37,28.387 0,19.316 -9.06,27.969 -26.64,27.969 z m 20.11,-57.5471 c -7.6,-4.2617 -17.86,-5.9922 -27.05,-5.9922 -9.99,0 -19.98,1.7305 -30.11,5.0664 l -0.4,-3.207 h -5.33 v 95.6559 h 7.87 v -32.097 c 10.79,2.383 25.31,5.582 35.56,5.582 8.67,0 16.93,-1.317 23.85,-6.918 8,-6.535 10.54,-17.055 10.54,-28.508 0,-12 -4.01,-23.328 -14.93,-29.5821" style="fill:#939598;fill-opacity:1;fill-rule:nonzero;stroke:none" id="path44"/><path d="m 2501.85,69.6563 v 7.3164 c 3.87,-0.3946 7.47,-0.668 10,-0.668 9.73,0 15.58,2.8086 21.05,13.8711 l 2.53,5.3242 -35.17,67.277 h 9.06 l 30.11,-58.082 h 0.53 l 28.65,58.086 8.92,-0.004 -37.83,-75.5426 c -6.93,-13.7227 -14.4,-18.2461 -28.12,-18.2461 -3.06,0 -6.39,0.2617 -9.73,0.668" style="fill:#939598;fill-opacity:1;fill-rule:nonzero;stroke:none" id="path46"/><path d="m 2685.88,133.867 h -26.12 V 110.281 H 2686 c 17.99,0 24.78,2.012 24.78,11.856 0,10.543 -9.32,11.73 -24.9,11.73 z m -4.81,38.246 h -21.31 v -23.988 h 21.45 c 17.72,0 24.78,2.129 24.78,12.121 0,10.652 -8.93,11.863 -24.91,11.863 z m 40.51,-70.226 c -9.6,-6.1292 -21.19,-6.3909 -42.38,-6.3909 h -39.82 v 91.2619 h 38.9 c 18.25,0 29.44,-0.266 38.77,-5.867 6.66,-4 9.33,-10.125 9.33,-18.114 0,-9.589 -4,-15.984 -14.4,-20.254 v -0.515 c 11.73,-2.684 19.32,-8.68 19.32,-21.602 0,-8.785 -3.19,-14.523 -9.72,-18.519" style="fill:#939598;fill-opacity:1;fill-rule:nonzero;stroke:none" id="path48"/><path d="m 2811,123.738 c -7.86,0.672 -15.85,1.067 -24.25,1.067 -13.71,0 -18.52,-2.797 -18.52,-9.055 0,-5.863 4,-9.062 14.52,-9.062 8.8,0 19.33,1.992 28.25,4.003 z m 4,-28.2458 -0.53,4.0078 c -11.46,-2.8125 -24.78,-5.8672 -36.51,-5.8672 -7.19,0 -14.92,0.9336 -20.39,4.9375 -5.05,3.5937 -7.45,9.4567 -7.45,16.2537 0,7.594 3.33,14.645 11.32,18.242 7.07,3.332 16.52,3.598 25.19,3.598 7.06,0 16.51,-0.398 24.38,-0.934 v 1.208 c 0,10.515 -6.94,13.98 -25.85,13.98 -7.32,0 -16.26,-0.387 -24.78,-1.191 v 13.589 c 9.46,0.789 20.11,1.325 28.91,1.325 11.73,0 23.85,-0.934 31.31,-6.254 7.72,-5.477 9.19,-13.071 9.19,-23.051 V 95.4961 L 2815,95.4922" style="fill:#939598;fill-opacity:1;fill-rule:nonzero;stroke:none" id="path50"/><path d="M 2917.63,95.4961 V 132.68 c 0,12.246 -6.26,16.636 -17.46,16.636 -8.25,0 -18.64,-2.121 -27.44,-4.261 V 95.4961 h -18.78 v 67.2809 h 15.32 l 0.66,-4.254 c 11.86,3.051 25.05,6.114 35.98,6.114 8.25,0 16.65,-1.188 23.05,-6.918 5.32,-4.805 7.33,-11.453 7.33,-21.055 V 95.4961 h -18.66" style="fill:#939598;fill-opacity:1;fill-rule:nonzero;stroke:none" id="path52"/><path d="m 2989.36,93.6328 c -8.66,0 -18.13,1.1953 -25.05,7.0622 -8.26,6.664 -10.66,17.18 -10.66,28.52 0,10.652 3.46,22.246 13.72,28.765 8.39,5.473 18.79,6.665 29.58,6.665 7.73,0 15.32,-0.536 23.71,-1.325 v -14.398 c -6.8,0.66 -14.92,1.199 -21.45,1.199 -17.85,0 -26.25,-5.598 -26.25,-21.055 0,-14.523 6.27,-20.777 20.92,-20.777 8.53,0 18.52,1.598 28.25,3.457 V 97.8945 c -10.53,-2.1367 -21.98,-4.2617 -32.77,-4.2617" style="fill:#939598;fill-opacity:1;fill-rule:nonzero;stroke:none" id="path54"/><path d="m 3077.62,150.531 c -17.86,0 -25.72,-5.609 -25.72,-20.926 0,-15.32 7.73,-21.855 25.72,-21.855 17.72,0 25.44,5.473 25.44,20.801 0,15.312 -7.58,21.98 -25.44,21.98 z m 32.24,-49.84 c -8.26,-5.5855 -19.05,-7.0582 -32.24,-7.0582 -13.46,0 -24.25,1.6094 -32.37,7.0622 -9.34,6.129 -12.67,16.254 -12.67,28.375 0,12.133 3.33,22.391 12.67,28.52 8.12,5.457 18.91,7.055 32.37,7.055 13.32,0 23.98,-1.598 32.24,-7.055 9.32,-6.129 12.53,-16.387 12.53,-28.375 0,-12.133 -3.34,-22.395 -12.53,-28.52 z m 0,0 v 0 0" style="fill:#939598;fill-opacity:1;fill-rule:nonzero;stroke:none" id="path56"/><path d="m 3230.84,93.6328 c -11.32,0 -23.57,1.8594 -32.78,9.4612 -10.92,9.066 -14.24,23.047 -14.24,38.105 0,13.449 4.26,29.434 18.51,38.77 11.05,7.183 24.78,8.652 38.64,8.652 10.13,0 20.51,-0.664 31.85,-1.601 v -16.387 c -9.73,0.805 -21.72,1.476 -31.05,1.476 -25.98,0 -37.04,-9.867 -37.04,-30.91 0,-21.461 10.26,-31.051 29.45,-31.051 12.52,0 26.51,2.536 40.63,5.469 V 99.3633 c -14.13,-2.8047 -28.92,-5.7305 -43.97,-5.7305" style="fill:#939598;fill-opacity:1;fill-rule:nonzero;stroke:none" id="path58"/><path d="m 3330.01,152.656 c -15.59,0 -21.59,-5.609 -22.79,-15.867 h 45.3 c -0.53,10.93 -6.93,15.867 -22.51,15.867 z m -2.8,-59.0232 c -11.06,0 -21.05,1.3281 -28.51,7.4692 -7.99,6.648 -10.8,16.644 -10.8,28.113 0,10.254 3.34,21.703 12.67,28.375 8.25,5.863 18.78,7.055 29.44,7.055 9.59,0 20.92,-1.063 29.17,-6.793 10.8,-7.598 11.73,-19.325 11.86,-33.176 l -63.95,-0.004 c 0.4,-10.262 5.86,-16.922 24.78,-16.922 11.73,0 24.78,1.73 35.84,3.469 V 98.0313 c -12.92,-2.1407 -27.05,-4.3985 -40.5,-4.3985" style="fill:#939598;fill-opacity:1;fill-rule:nonzero;stroke:none" id="path60"/><path d="M 3454.62,95.4961 V 132.68 c 0,12.246 -6.26,16.636 -17.46,16.636 -8.25,0 -18.64,-2.121 -27.44,-4.261 V 95.4961 h -18.79 v 67.2809 h 15.33 l 0.66,-4.254 c 11.86,3.051 25.04,6.114 35.98,6.114 8.25,0 16.65,-1.188 23.04,-6.918 5.33,-4.805 7.33,-11.453 7.33,-21.055 V 95.4961 h -18.65" style="fill:#939598;fill-opacity:1;fill-rule:nonzero;stroke:none" id="path62"/><path d="m 3526.75,93.6328 c -9.06,0 -17.33,2.5391 -21.85,9.5942 -3.33,4.8 -4.94,11.316 -4.94,20.382 v 25.188 h -13.59 v 13.98 h 13.59 l 2,20.387 h 16.66 v -20.387 h 26.51 v -13.98 h -26.51 v -21.598 c 0,-5.191 0.4,-9.586 1.86,-12.789 2,-4.523 6.4,-6.254 12.26,-6.254 4.39,0 9.73,0.672 13.45,1.324 V 96.0352 c -6.12,-1.2071 -13.19,-2.4024 -19.44,-2.4024" style="fill:#939598;fill-opacity:1;fill-rule:nonzero;stroke:none" id="path64"/><path d="m 3563.45,95.4961 v 67.2809 h 15.33 l 0.67,-4.254 c 12.39,3.457 21.57,6.114 33.3,6.114 0.54,0 1.34,0 2.4,-0.121 v -15.993 c -2.13,0.129 -4.67,0.129 -6.52,0.129 -9.2,0 -16.13,-1.062 -26.39,-3.468 V 95.4961 h -18.79" style="fill:#939598;fill-opacity:1;fill-rule:nonzero;stroke:none" id="path66"/><path d="m 3683.44,123.738 c -7.86,0.672 -15.85,1.067 -24.25,1.067 -13.72,0 -18.52,-2.797 -18.52,-9.055 0,-5.863 4,-9.062 14.52,-9.062 8.8,0 19.33,1.992 28.25,4.003 z m 4,-28.2458 -0.53,4.0078 c -11.46,-2.8125 -24.79,-5.8672 -36.51,-5.8672 -7.2,0 -14.93,0.9336 -20.39,4.9375 -5.05,3.5937 -7.45,9.4567 -7.45,16.2537 0,7.594 3.32,14.645 11.32,18.242 7.06,3.332 16.52,3.598 25.18,3.598 7.06,0 16.52,-0.398 24.39,-0.934 v 1.208 c 0,10.515 -6.93,13.98 -25.85,13.98 -7.33,0 -16.26,-0.387 -24.79,-1.191 v 13.589 c 9.46,0.789 20.12,1.325 28.92,1.325 11.72,0 23.85,-0.934 31.31,-6.254 7.72,-5.477 9.19,-13.071 9.19,-23.051 V 95.4961 l -14.79,-0.0039" style="fill:#939598;fill-opacity:1;fill-rule:nonzero;stroke:none" id="path68"/><path d="m 3726.39,191.152 h 18.78 V 95.4961 h -18.78 v 95.6559" style="fill:#939598;fill-opacity:1;fill-rule:nonzero;stroke:none" id="path70"/></g></g></svg>